{
  "accessors": [
    {
      "bufferView": 2,
      "componentType": 5126,
      "count": 409,
      "max": [
        0.16614800691604614,
        0.03461400046944618,
        0.35436201095581055
      ],
      "min": [
        -0.16560499370098114,
        -0.05397000163793564,
        0.1508069932460785
      ],
      "type": "VEC3"
    },
    {
      "bufferView": 2,
      "byteOffset": 4908,
      "componentType": 5126,
      "count": 409,
      "max": [
        0.9990121126174927,
        0.9995080828666687,
        0.9980319142341614
      ],
      "min": [
        -0.9990119338035583,
        -0.9954249858856201,
        -0.9965569376945496
      ],
      "type": "VEC3"
    },
    {
      "bufferView": 1,
      "componentType": 5126,
      "count": 409,
      "max": [
        0.979237973690033,
        1.9793800115585327
      ],
      "min": [
        0.030660999938845634,
        0.05353499948978424
      ],
      "type": "VEC2"
    },
    {
      "bufferView": 0,
      "componentType": 5125,
      "count": 1164,
      "type": "SCALAR"
    },
    {
      "bufferView": 2,
      "byteOffset": 9816,
      "componentType": 5126,
      "count": 314,
      "max": [
        0.12601199746131897,
        0.11936300247907639,
        0.3438259959220886
      ],
      "min": [
        -0.14005699753761292,
        -0.11388099938631058,
        0.025383999571204185
      ],
      "type": "VEC3"
    },
    {
      "bufferView": 2,
      "byteOffset": 13584,
      "componentType": 5126,
      "count": 314,
      "max": [
        0.9928871393203735,
        0.9973037838935852,
        0.9498878717422485
      ],
      "min": [
        -0.9929457306861877,
        -0.9997143149375916,
        -0.9197337031364441
      ],
      "type": "VEC3"
    },
    {
      "bufferView": 1,
      "byteOffset": 3272,
      "componentType": 5126,
      "count": 314,
      "max": [
        1.960603952407837,
        0.6319199800491333
      ],
      "min": [
        0.03607799857854843,
        -0.954239010810852
      ],
      "type": "VEC2"
    },
    {
      "bufferView": 0,
      "byteOffset": 4656,
      "componentType": 5125,
      "count": 876,
      "type": "SCALAR"
    }
  ],
  "asset": {
    "extras": {
      "author": "Neut2000 (https://sketchfab.com/Neut2000)",
      "license": "CC-BY-4.0 (http://creativecommons.org/licenses/by/4.0/)",
      "source": "https://sketchfab.com/3d-models/shrek-2-roy-the-save-fairy-4e7954f8d0b54e5bad33aba7e93cbbb8",
      "title": "Shrek 2 Roy The Save Fairy"
    },
    "generator": "Sketchfab-12.67.0",
    "version": "2.0"
  },
  "bufferViews": [
    {
      "buffer": 0,
      "byteLength": 8160,
      "name": "floatBufferViews",
      "target": 34963
    },
    {
      "buffer": 0,
      "byteLength": 5784,
      "byteOffset": 8160,
      "byteStride": 8,
      "name": "floatBufferViews",
      "target": 34962
    },
    {
      "buffer": 0,
      "byteLength": 17352,
      "byteOffset": 13944,
      "byteStride": 12,
      "name": "floatBufferViews",
      "target": 34962
    }
  ],
  "buffers": [
    {
      "byteLength": 31296,
      "uri": "scene.bin"
    }
  ],
  "images": [
    {
      "uri": "textures/roy1_baseColor.png"
    },
    {
      "uri": "textures/roy2_baseColor.png"
    }
  ],
  "materials": [
    {
      "doubleSided": true,
      "name": "roy1",
      "pbrMetallicRoughness": {
        "baseColorTexture": {
          "index": 0
        },
        "metallicFactor": 0.0
      }
    },
    {
      "doubleSided": true,
      "name": "roy2",
      "pbrMetallicRoughness": {
        "baseColorTexture": {
          "index": 1
        },
        "metallicFactor": 0.0
      }
    }
  ],
  "meshes": [
    {
      "name": "Object_0",
      "primitives": [
        {
          "attributes": {
            "NORMAL": 1,
            "POSITION": 0,
            "TEXCOORD_0": 2
          },
          "indices": 3,
          "material": 0,
          "mode": 4
        }
      ]
    },
    {
      "name": "Object_1",
      "primitives": [
        {
          "attributes": {
            "NORMAL": 5,
            "POSITION": 4,
            "TEXCOORD_0": 6
          },
          "indices": 7,
          "material": 1,
          "mode": 4
        }
      ]
    }
  ],
  "nodes": [
    {
      "children": [
        1
      ],
      "matrix": [
        1.0,
        0.0,
        0.0,
        0.0,
        0.0,
        2.220446049250313e-16,
        -1.0,
        0.0,
        0.0,
        1.0,
        2.220446049250313e-16,
        0.0,
        0.0,
        0.0,
        0.0,
        1.0
      ],
      "name": "Sketchfab_model"
    },
    {
      "children": [
        2,
        3
      ],
      "name": "CHARACTER_Roy The Save Fairy.obj.cleaner.materialmerger.gles"
    },
    {
      "mesh": 0,
      "name": "Object_2"
    },
    {
      "mesh": 1,
      "name": "Object_3"
    }
  ],
  "samplers": [
    {
      "magFilter": 9729,
      "minFilter": 9987,
      "wrapS": 10497,
      "wrapT": 10497
    }
  ],
  "scene": 0,
  "scenes": [
    {
      "name": "Sketchfab_Scene",
      "nodes": [
        0
      ]
    }
  ],
  "textures": [
    {
      "sampler": 0,
      "source": 0
    },
    {
      "sampler": 0,
      "source": 1
    }
  ]
}
